# xmcd
#
# Track frame offsets: 
#        150
#        15154
#        27461
#        45001
#        60767
#        82018
#        94377
#        113332
#        127924
#        145646
#        160665
#        185963
#        204648
#
# Disc length: 2903 seconds
#
# Revision: 0
# Processed by: cddbd v1.5.2PL0 Copyright (c) Steve Scherf et al.
# Submitted via: ExactAudioCopyFreeDBPlugin 1.0
#
DISCID=970b550d
DTITLE=Various Artist - The Johnny Cash Music Festival 2011
DYEAR=2012
DGENRE=Country
TTITLE0=Rosanne Cash - Tennessee Flat Top Box
TTITLE1=George Jones - I Got Stripes
TTITLE2=Kris Kristofferson - Sunday Morning Coming Down
TTITLE3=Dailey and Vincent - Daddy Sang Bass
TTITLE4=Gary and Matt Morris - Wind Beneath My Wings
TTITLE5=Rosanne Cash - Pickin' Time
TTITLE6=Rodney Crowell - After All this Time
TTITLE7=George Jones - Same Old Me
TTITLE8=Kris Kristofferson - Me and Bobby McGee
TTITLE9=Rosanne Cash and Rodney Crowell - No Memories Hanging 'Round
TTITLE10=Gary and Matt Morris - Hallelujah
TTITLE11=Dailey and Vincent - When the Roll is Called Up Yonder
TTITLE12=Rosanne Cash - I Still Miss Someone
EXTD=
EXTT0=
EXTT1=
EXTT2=
EXTT3=
EXTT4=
EXTT5=
EXTT6=
EXTT7=
EXTT8=
EXTT9=
EXTT10=
EXTT11=
EXTT12=
PLAYORDER=
